<mxfile host="app.diagrams.net" agent="Mozilla/5.0 (Windows NT 10.0; Win64; x64) AppleWebKit/537.36 (KHTML, like Gecko) Chrome/131.0.0.0 Safari/537.36" version="24.9.1">
  <diagram id="X9jekqwLZvVgGdFk9yk1" name="Trang-1">
    <mxGraphModel dx="1050" dy="522" grid="1" gridSize="10" guides="1" tooltips="1" connect="1" arrows="1" fold="1" page="1" pageScale="1" pageWidth="827" pageHeight="1169" math="0" shadow="0">
      <root>
        <mxCell id="0" />
        <mxCell id="1" parent="0" />
        <mxCell id="MwAvdb_qt5ozKsa4UYdg-35" value="Nhân viên" style="shape=umlActor;verticalLabelPosition=bottom;verticalAlign=top;html=1;outlineConnect=0;" parent="1" vertex="1">
          <mxGeometry x="389" y="570" width="30" height="60" as="geometry" />
        </mxCell>
        <mxCell id="MwAvdb_qt5ozKsa4UYdg-37" value="" style="endArrow=classic;html=1;rounded=0;" parent="1" source="MwAvdb_qt5ozKsa4UYdg-35" target="MwAvdb_qt5ozKsa4UYdg-32" edge="1">
          <mxGeometry width="50" height="50" relative="1" as="geometry">
            <mxPoint x="380" y="590" as="sourcePoint" />
            <mxPoint x="430" y="540" as="targetPoint" />
          </mxGeometry>
        </mxCell>
        <mxCell id="MwAvdb_qt5ozKsa4UYdg-38" value="" style="endArrow=classic;html=1;rounded=0;" parent="1" source="MwAvdb_qt5ozKsa4UYdg-35" target="MwAvdb_qt5ozKsa4UYdg-34" edge="1">
          <mxGeometry width="50" height="50" relative="1" as="geometry">
            <mxPoint x="429" y="608" as="sourcePoint" />
            <mxPoint x="593" y="587" as="targetPoint" />
          </mxGeometry>
        </mxCell>
        <mxCell id="MwAvdb_qt5ozKsa4UYdg-44" value="" style="endArrow=classic;html=1;rounded=0;" parent="1" source="MwAvdb_qt5ozKsa4UYdg-35" target="MwAvdb_qt5ozKsa4UYdg-58" edge="1">
          <mxGeometry width="50" height="50" relative="1" as="geometry">
            <mxPoint x="380" y="590" as="sourcePoint" />
            <mxPoint x="576.3792108470104" y="532.1655883240933" as="targetPoint" />
          </mxGeometry>
        </mxCell>
        <mxCell id="MwAvdb_qt5ozKsa4UYdg-47" value="Quản lý đổi mật khẩu" style="ellipse;whiteSpace=wrap;html=1;" parent="1" vertex="1">
          <mxGeometry x="500" y="710" width="120" height="50" as="geometry" />
        </mxCell>
        <mxCell id="MwAvdb_qt5ozKsa4UYdg-49" value="" style="endArrow=classic;html=1;rounded=0;" parent="1" source="MwAvdb_qt5ozKsa4UYdg-35" target="MwAvdb_qt5ozKsa4UYdg-47" edge="1">
          <mxGeometry width="50" height="50" relative="1" as="geometry">
            <mxPoint x="405" y="640" as="sourcePoint" />
            <mxPoint x="377" y="730" as="targetPoint" />
          </mxGeometry>
        </mxCell>
        <mxCell id="MwAvdb_qt5ozKsa4UYdg-53" value="" style="endArrow=classic;html=1;rounded=0;" parent="1" source="MwAvdb_qt5ozKsa4UYdg-35" target="MwAvdb_qt5ozKsa4UYdg-52" edge="1">
          <mxGeometry width="50" height="50" relative="1" as="geometry">
            <mxPoint x="399" y="609" as="sourcePoint" />
            <mxPoint x="239" y="593" as="targetPoint" />
          </mxGeometry>
        </mxCell>
        <mxCell id="MwAvdb_qt5ozKsa4UYdg-55" value="" style="group" parent="1" vertex="1" connectable="0">
          <mxGeometry x="90" y="450" width="160" height="230" as="geometry" />
        </mxCell>
        <mxCell id="MwAvdb_qt5ozKsa4UYdg-31" value="Xem thông tin cá nhân" style="shape=umlFrame;whiteSpace=wrap;html=1;pointerEvents=0;width=100;height=35;" parent="MwAvdb_qt5ozKsa4UYdg-55" vertex="1">
          <mxGeometry width="160" height="230" as="geometry" />
        </mxCell>
        <mxCell id="MwAvdb_qt5ozKsa4UYdg-32" value="Thêm thông tin cá nhân" style="ellipse;whiteSpace=wrap;html=1;" parent="MwAvdb_qt5ozKsa4UYdg-55" vertex="1">
          <mxGeometry x="20" y="40" width="120" height="50" as="geometry" />
        </mxCell>
        <mxCell id="MwAvdb_qt5ozKsa4UYdg-34" value="Sửa thông tin cá nhân" style="ellipse;whiteSpace=wrap;html=1;" parent="MwAvdb_qt5ozKsa4UYdg-55" vertex="1">
          <mxGeometry x="20" y="100" width="120" height="55" as="geometry" />
        </mxCell>
        <mxCell id="MwAvdb_qt5ozKsa4UYdg-52" value="Xóa thông tin cá nhân" style="ellipse;whiteSpace=wrap;html=1;" parent="MwAvdb_qt5ozKsa4UYdg-55" vertex="1">
          <mxGeometry x="20" y="170" width="120" height="55" as="geometry" />
        </mxCell>
        <mxCell id="MwAvdb_qt5ozKsa4UYdg-62" value="" style="endArrow=classic;html=1;rounded=0;" parent="1" source="MwAvdb_qt5ozKsa4UYdg-35" target="MwAvdb_qt5ozKsa4UYdg-60" edge="1">
          <mxGeometry width="50" height="50" relative="1" as="geometry">
            <mxPoint x="429" y="604" as="sourcePoint" />
            <mxPoint x="625" y="532" as="targetPoint" />
          </mxGeometry>
        </mxCell>
        <mxCell id="MwAvdb_qt5ozKsa4UYdg-63" value="" style="group" parent="1" vertex="1" connectable="0">
          <mxGeometry x="560" y="440" width="160" height="180" as="geometry" />
        </mxCell>
        <mxCell id="MwAvdb_qt5ozKsa4UYdg-57" value="Tạo đơn xin nghỉ" style="shape=umlFrame;whiteSpace=wrap;html=1;pointerEvents=0;width=100;height=35;" parent="MwAvdb_qt5ozKsa4UYdg-63" vertex="1">
          <mxGeometry width="160" height="180" as="geometry" />
        </mxCell>
        <mxCell id="MwAvdb_qt5ozKsa4UYdg-58" value="Tạo đơn xin nghỉ" style="ellipse;whiteSpace=wrap;html=1;" parent="MwAvdb_qt5ozKsa4UYdg-63" vertex="1">
          <mxGeometry x="20" y="40" width="120" height="50" as="geometry" />
        </mxCell>
        <mxCell id="MwAvdb_qt5ozKsa4UYdg-60" value="Theo dõi đơn xin nghỉ" style="ellipse;whiteSpace=wrap;html=1;" parent="MwAvdb_qt5ozKsa4UYdg-63" vertex="1">
          <mxGeometry x="20" y="110" width="120" height="55" as="geometry" />
        </mxCell>
        <mxCell id="EbJl5Ow4_LI1pv9oPmtv-1" value="Đăng nhập" style="ellipse;whiteSpace=wrap;html=1;" parent="1" vertex="1">
          <mxGeometry x="200" y="710" width="120" height="50" as="geometry" />
        </mxCell>
        <mxCell id="EbJl5Ow4_LI1pv9oPmtv-2" value="" style="endArrow=classic;html=1;rounded=0;" parent="1" source="MwAvdb_qt5ozKsa4UYdg-35" target="EbJl5Ow4_LI1pv9oPmtv-1" edge="1">
          <mxGeometry width="50" height="50" relative="1" as="geometry">
            <mxPoint x="390" y="700" as="sourcePoint" />
            <mxPoint x="440" y="650" as="targetPoint" />
          </mxGeometry>
        </mxCell>
        <mxCell id="1sWeqI6WUViFNf-ZDjZL-1" value="Quản lý chấm công" style="ellipse;whiteSpace=wrap;html=1;" vertex="1" parent="1">
          <mxGeometry x="360" y="730" width="120" height="50" as="geometry" />
        </mxCell>
        <mxCell id="1sWeqI6WUViFNf-ZDjZL-2" value="" style="endArrow=classic;html=1;rounded=0;" edge="1" parent="1" target="1sWeqI6WUViFNf-ZDjZL-1">
          <mxGeometry width="50" height="50" relative="1" as="geometry">
            <mxPoint x="410" y="660" as="sourcePoint" />
            <mxPoint x="440" y="650" as="targetPoint" />
          </mxGeometry>
        </mxCell>
      </root>
    </mxGraphModel>
  </diagram>
</mxfile>
